<svg width="2319" height="800" viewBox="0 0 2319 800" fill="none" xmlns="http://www.w3.org/2000/svg">
<rect width="2319" height="800" rx="50" fill="white"/>
<path d="M271.72 655.44C250.867 655.44 233.073 650.793 218.34 641.5C203.833 631.98 192.727 619.06 185.02 602.74C177.54 586.42 173.8 567.947 173.8 547.32V252.88C173.8 232.48 177.653 214.12 185.36 197.8C193.293 181.48 204.627 168.56 219.36 159.04C234.093 149.52 251.547 144.76 271.72 144.76C286.907 144.76 300.507 147.593 312.52 153.26C324.533 158.927 334.733 166.747 343.12 176.72C351.733 186.467 358.307 197.913 362.84 211.06C367.373 223.98 369.64 237.92 369.64 252.88V321.56H300.96V252.88C300.96 242.453 298.807 233.727 294.5 226.7C290.193 219.673 283.053 216.16 273.08 216.16C264.013 216.16 257.44 219.787 253.36 227.04C249.28 234.293 247.24 242.907 247.24 252.88V547.32C247.24 557.293 249.393 565.907 253.7 573.16C258.233 580.413 264.693 584.04 273.08 584.04C283.28 584.04 290.42 580.527 294.5 573.5C298.807 566.473 300.96 557.747 300.96 547.32V478.64H369.64V547.32C369.64 567.72 365.673 586.08 357.74 602.4C349.807 618.72 338.473 631.64 323.74 641.16C309.233 650.68 291.893 655.44 271.72 655.44ZM495.371 654.76C467.944 654.76 446.411 645.58 430.771 627.22C415.131 608.633 407.311 585.173 407.311 556.84V370.52C407.311 342.187 415.131 318.84 430.771 300.48C446.411 281.893 467.944 272.6 495.371 272.6C522.571 272.6 543.991 281.893 559.631 300.48C575.498 318.84 583.431 342.187 583.431 370.52V556.84C583.431 585.173 575.498 608.633 559.631 627.22C543.991 645.58 522.571 654.76 495.371 654.76ZM495.371 594.92C504.211 594.92 510.331 591.407 513.731 584.38C517.131 577.127 518.831 567.947 518.831 556.84V370.52C518.831 359.187 517.131 350.007 513.731 342.98C510.331 335.953 504.211 332.44 495.371 332.44C486.531 332.44 480.411 335.953 477.011 342.98C473.611 350.007 471.911 359.187 471.911 370.52V556.84C471.911 568.173 473.611 577.353 477.011 584.38C480.411 591.407 486.531 594.92 495.371 594.92ZM613.914 650V278.04H682.594V309.32C693.701 299.12 703.787 290.507 712.854 283.48C722.147 276.227 731.101 272.6 739.714 272.6C751.954 272.6 761.814 276.793 769.294 285.18C776.774 293.567 782.327 303.2 785.954 314.08C795.701 304.107 805.787 294.7 816.214 285.86C826.867 277.02 837.634 272.6 848.514 272.6C859.847 272.6 869.367 276.227 877.074 283.48C884.781 290.733 890.561 299.913 894.414 311.02C898.267 322.127 900.194 333.573 900.194 345.36V650H835.594V358.96C835.594 351.707 833.781 346.607 830.154 343.66C826.754 340.713 822.447 339.24 817.234 339.24C812.021 339.24 807.034 341.28 802.274 345.36C797.514 349.213 793.887 353.067 791.394 356.92V650H726.794V358.96C726.794 351.707 724.981 346.607 721.354 343.66C717.954 340.713 713.647 339.24 708.434 339.24C703.221 339.24 698.234 341.28 693.474 345.36C688.714 349.213 685.087 353.067 682.594 356.92V650H613.914ZM933.992 650V278.04H1002.67V309.32C1013.78 299.12 1023.87 290.507 1032.93 283.48C1042.23 276.227 1051.18 272.6 1059.79 272.6C1072.03 272.6 1081.89 276.793 1089.37 285.18C1096.85 293.567 1102.41 303.2 1106.03 314.08C1115.78 304.107 1125.87 294.7 1136.29 285.86C1146.95 277.02 1157.71 272.6 1168.59 272.6C1179.93 272.6 1189.45 276.227 1197.15 283.48C1204.86 290.733 1210.64 299.913 1214.49 311.02C1218.35 322.127 1220.27 333.573 1220.27 345.36V650H1155.67V358.96C1155.67 351.707 1153.86 346.607 1150.23 343.66C1146.83 340.713 1142.53 339.24 1137.31 339.24C1132.1 339.24 1127.11 341.28 1122.35 345.36C1117.59 349.213 1113.97 353.067 1111.47 356.92V650H1046.87V358.96C1046.87 351.707 1045.06 346.607 1041.43 343.66C1038.03 340.713 1033.73 339.24 1028.51 339.24C1023.3 339.24 1018.31 341.28 1013.55 345.36C1008.79 349.213 1005.17 353.067 1002.67 356.92V650H933.992ZM1339.07 655.44C1311.64 655.44 1290 646.033 1274.13 627.22C1258.49 608.18 1250.67 584.947 1250.67 557.52V370.52C1250.67 341.507 1258.49 317.933 1274.13 299.8C1289.77 281.667 1311.64 272.6 1339.75 272.6C1358.11 272.6 1373.86 276.793 1387.01 285.18C1400.38 293.567 1410.58 305.013 1417.61 319.52C1424.64 333.8 1428.15 350.12 1428.15 368.48V476.6H1314.59V557.52C1314.59 566.813 1316.63 575.427 1320.71 583.36C1325.02 591.067 1331.36 594.92 1339.75 594.92C1348.59 594.92 1354.82 591.293 1358.45 584.04C1362.3 576.787 1364.23 567.947 1364.23 557.52V516.72H1428.15V559.56C1428.15 588.347 1420.33 611.58 1404.69 629.26C1389.28 646.713 1367.4 655.44 1339.07 655.44ZM1314.59 422.88H1364.23V370.52C1364.23 360.32 1362.42 351.48 1358.79 344C1355.39 336.293 1349.04 332.44 1339.75 332.44C1331.14 332.44 1324.79 336.407 1320.71 344.34C1316.63 352.047 1314.59 360.773 1314.59 370.52V422.88ZM1457.27 650V278.04H1525.95V309.32C1534.11 301.387 1543.29 293.34 1553.49 285.18C1563.69 276.793 1573.1 272.6 1581.71 272.6C1593.05 272.6 1602.57 276.227 1610.27 283.48C1617.98 290.733 1623.76 299.913 1627.61 311.02C1631.47 322.127 1633.39 333.573 1633.39 345.36V650H1564.71V358.96C1564.71 351.707 1563.47 346.607 1560.97 343.66C1558.48 340.713 1554.29 339.24 1548.39 339.24C1543.41 339.24 1539.1 341.053 1535.47 344.68C1532.07 348.08 1528.9 352.16 1525.95 356.92V650H1457.27ZM1763.09 655.44C1741.56 655.44 1725.13 650.68 1713.79 641.16C1702.46 631.64 1694.64 618.04 1690.33 600.36C1686.25 582.68 1684.21 561.6 1684.21 537.12V339.92H1649.53V278.04H1684.21V186.24H1752.89V278.04H1800.15V339.92H1752.89V546.98C1752.89 561.487 1755.05 572.253 1759.35 579.28C1763.66 586.08 1770.69 589.48 1780.43 589.48C1784.74 589.48 1788.48 589.14 1791.65 588.46C1795.05 587.78 1797.77 586.987 1799.81 586.08V648.98C1795.28 650.793 1790.29 652.267 1784.85 653.4C1779.64 654.76 1772.39 655.44 1763.09 655.44ZM1905.52 655.44C1878.09 655.44 1856.44 646.033 1840.58 627.22C1824.94 608.18 1817.12 584.947 1817.12 557.52V370.52C1817.12 341.507 1824.94 317.933 1840.58 299.8C1856.22 281.667 1878.09 272.6 1906.2 272.6C1924.56 272.6 1940.31 276.793 1953.46 285.18C1966.83 293.567 1977.03 305.013 1984.06 319.52C1991.08 333.8 1994.6 350.12 1994.6 368.48V476.6H1881.04V557.52C1881.04 566.813 1883.08 575.427 1887.16 583.36C1891.46 591.067 1897.81 594.92 1906.2 594.92C1915.04 594.92 1921.27 591.293 1924.9 584.04C1928.75 576.787 1930.68 567.947 1930.68 557.52V516.72H1994.6V559.56C1994.6 588.347 1986.78 611.58 1971.14 629.26C1955.72 646.713 1933.85 655.44 1905.52 655.44ZM1881.04 422.88H1930.68V370.52C1930.68 360.32 1928.86 351.48 1925.24 344C1921.84 336.293 1915.49 332.44 1906.2 332.44C1897.58 332.44 1891.24 336.407 1887.16 344.34C1883.08 352.047 1881.04 360.773 1881.04 370.52V422.88ZM2023.72 650V278.04H2092.4V319.52C2093.76 310.453 2097.95 302.407 2104.98 295.38C2112.01 288.353 2120.51 282.8 2130.48 278.72C2140.68 274.64 2150.88 272.6 2161.08 272.6V348.76C2158.13 347.627 2154.96 346.947 2151.56 346.72C2148.39 346.267 2145.21 346.04 2142.04 346.04C2127.08 346.04 2115.07 350.12 2106 358.28C2096.93 366.44 2092.4 377.547 2092.4 391.6V650H2023.72Z" fill="#2C2C2C"/>
</svg>
